<svg xmlns="http://www.w3.org/2000/svg" viewBox="0 0 1600 1200" width="1600px" height="1200px">
  <defs/>
  <g stroke="#101010" stroke-width="5">
    <path d="M548 374c0-28-43-60-62-76-36-33-74-63-111-93-38-30-76-61-111-94-23-22-51-46-66-77-34-66 72-56 99-58 70-3 150-2 215-36 39-20 55-55 46-105-3-16-11-35-4-51 7-17 24-26 38-33 50-24 108-27 161-30 58-3 116-2 173-2 24 0 49-11 72-19l90-37c66-27 134-55 203-62 44-4 92 2 126 39 17 19 26 46 35 71l36 90c41 94 100 187 194 191 15 1 29-1 43-2 9 0 17 3 20 14 9 29-18 75-29 98-24 51-51 99-76 148-17 33-46 78-46 118 0 35 38 61 59 78 20 16 56 39 58 72 1 17-8 30-17 40-16 18-34 31-48 52-24 34-44 80-40 126 2 32 17 53 35 72 8 9 15 15 15 28 1 22-6 44-12 64a1198 1198 0 01-136 297c-14 18-32 39-54 39-24 0-50-11-74-19-45-15-89-33-133-51-102-41-202-86-302-134-70-34-142-69-208-114-13-9-25-19-36-31a88 88 0 00-43-22c-94-25-197-6-291 7l-72 8c-21 2-45 7-66-1-39-16-5-74 10-98 52-84 118-155 180-227 29-35 58-69 86-105 14-19 43-50 43-75z"/>
    <path d="M566 369c-16-30-44-52-67-72l-101-88c-31-27-63-55-93-86-18-19-40-42-49-70C238-8 337 1 362-1c60-4 129-4 186-37 35-20 49-53 42-99-3-16-7-30-1-46 6-18 22-30 37-38 45-25 98-30 147-35 51-5 103-8 152-4 20 1 42-7 62-13l89-29c60-20 122-39 185-41 45-1 92 7 130 40s55 85 76 134c37 84 86 187 171 205 13 3 25 1 38 2 6 0 14 1 17 9 9 21-15 59-23 74-22 44-47 85-70 128-18 34-42 72-49 112-9 49 48 83 68 118 34 59-31 93-63 122-37 32-68 92-34 142 12 20 28 31 33 56 9 40 3 85-5 124-10 58-28 116-51 169-16 38-44 97-84 93-28-3-55-14-82-24a3368 3368 0 01-384-178c-60-32-226-164-238-169-38-14-80-11-118-9-51 3-102 10-153 17l-73 9c-17 1-40 2-55-10-30-24 3-79 17-102 42-71 95-133 144-196 24-30 49-61 71-95 9-13 31-40 22-59z"/>
    <path d="M587 354c-43-60-102-104-154-154-25-25-51-51-73-81-12-15-26-35-29-57-6-58 84-50 110-52 52-4 111-8 158-37 28-18 42-48 37-87-2-17-6-32 0-49s19-29 32-38c37-26 84-35 126-41 49-7 99-10 148-8 44 1 87-15 130-25 56-14 113-26 171-24 45 2 91 13 130 43s63 76 84 125c33 74 73 174 144 202 10 5 20 5 31 6 5 0 11 0 14 7 6 16-17 46-23 57-20 34-42 67-63 101-20 31-41 64-53 101-19 58 42 93 41 149-1 35-29 60-50 77-27 21-65 35-79 74-10 28 6 45 18 67 20 37 22 87 20 130-3 58-14 117-33 170-9 24-19 50-35 68-14 18-28 22-48 19-59-11-119-42-176-69-71-35-142-73-210-116-47-29-95-60-135-101-11-10-22-21-30-35-6-11-8-19-18-25-30-18-71-13-102-12-51 3-101 11-151 18-30 4-85 17-108-14-20-27 4-72 17-96 31-60 71-112 109-166 17-25 35-50 49-78 4-7 10-16 11-24 1-10-4-18-10-25z"/>
    <path d="M591 368c-40-53-88-96-130-146-20-22-39-45-54-72-7-15-16-33-14-51 7-52 80-48 110-51 44-4 95-9 134-37 25-18 35-45 30-80-5-37 6-65 32-86 33-26 74-36 112-44 46-9 92-13 139-12 45 1 88-8 133-14 60-8 121-12 180 4 51 14 97 46 131 94 36 50 54 114 84 170 18 34 43 80 78 94 11 4 32-2 23 20-5 13-15 24-23 35l-38 49c-27 35-56 71-76 113-25 53 13 93 8 146-3 29-19 52-36 70-11 11-24 21-36 31-13 10-28 17-40 30-16 18-9 39-6 63a616 616 0 01-27 273c-7 18-16 37-30 49-13 12-27 11-42 8-46-11-91-36-134-60-54-29-107-62-158-100-34-26-69-54-99-89-8-10-16-21-23-34-4-8-7-19-13-25-20-20-61-14-85-13-48 3-94 13-142 16-26 1-66 5-86-22-17-25-1-65 10-89 21-48 49-91 74-136 11-18 22-37 29-58 6-19-5-33-15-46z"/>
    <path d="M601 369c-32-47-70-88-102-135-19-28-51-75-36-114 15-43 71-44 103-47 38-4 82-10 115-37 10-8 19-19 23-34 4-16-1-30-1-46-1-33 15-59 36-78 31-26 69-38 105-46 40-10 81-15 123-14 39 0 79-1 118-3 52-1 104 1 155 18 49 17 94 48 129 93s58 99 78 155c12 31 32 78 59 94 12 7 24 7 11 25-16 23-38 42-57 61-28 29-56 58-79 92-14 22-21 43-20 71 1 21 4 43 3 64-5 50-37 85-66 117-18 21-35 37-45 66-11 35-16 73-23 109-9 40-18 81-36 116-16 31-36 45-65 37-46-13-91-46-131-75-41-31-82-65-116-106-19-23-31-49-48-74-20-30-67-18-94-16-46 4-191 36-178-67 6-43 28-83 44-121 6-16 16-35 18-53 1-19-14-38-23-52z"/>
    <path d="M618 373c-25-42-54-82-74-128-14-29-27-69-10-100 20-35 63-43 95-48 33-4 72-8 99-35 8-9 15-20 17-34 1-13-3-26-1-39 2-31 17-55 36-73 57-54 142-66 211-67 35-1 70 3 105 6 45 3 90 10 133 28 91 37 152 119 195 222 14 32 24 67 45 93 11 13 8 23-3 35-17 19-38 33-57 49-28 23-56 46-80 73-17 19-29 37-32 65-3 20-2 40-4 60-3 38-13 76-31 108-14 25-31 48-48 70-23 28-42 57-59 91-23 44-55 126-109 104-59-24-114-84-152-144-13-19-24-44-41-58-26-22-52-21-83-21-45 0-145 12-146-72-1-33 11-65 17-97 6-35-7-60-23-88z"/>
    <path d="M636 377c-24-55-78-146-37-207 21-32 60-44 92-52 25-5 57-8 76-32 14-19 8-45 14-68 6-28 22-51 41-69 54-48 128-63 193-67 67-3 141 13 204 42 79 37 138 107 179 196l22 49c5 11 12 22 16 34 6 19-1 35-14 48-17 18-39 31-59 45-27 19-55 37-80 59-17 15-35 31-41 56-4 18-5 37-5 55 0 39-1 70-16 106-25 58-62 111-102 155-31 34-81 87-126 64-41-20-65-69-92-109-13-20-28-37-45-51-22-17-42-25-68-27-43-5-109-6-122-70-5-23-2-48-5-71-3-32-13-59-25-86z"/>
    <path d="M661 379c-17-61-40-136 1-190 20-26 48-40 76-51 19-8 50-10 62-34 9-17 10-42 18-60 11-26 27-47 47-64 50-44 116-60 176-65 130-11 262 72 332 209 21 41 48 84 14 126-37 45-92 66-136 98-16 13-38 28-47 50-5 13-6 30-6 45-1 37-3 71-16 106-19 54-49 104-84 145-30 36-73 78-117 52-33-20-54-62-81-93-29-34-64-57-104-69-38-11-80-18-100-65-7-16-14-37-17-54-4-30-10-58-18-86h0z"/>
    <path d="M688 379c-7-61-8-124 28-172 17-22 39-38 61-52 16-11 33-20 45-37 11-16 19-35 30-51 14-22 31-41 50-56 48-39 107-56 162-63 27-3 57-4 83 4s52 20 76 35c50 31 94 76 126 134 22 39 34 77 5 117-31 45-81 70-123 99-28 20-59 40-65 82-4 34-7 66-18 98-16 47-40 90-70 126-27 32-62 60-101 43-31-14-55-45-82-67-31-25-64-39-99-50a138 138 0 01-93-78c-4-9-4-19-4-29l-11-83z"/>
    <path d="M719 374c1-58 12-112 43-157 14-19 29-35 44-53 12-14 23-27 37-39 32-28 58-64 92-88a334 334 0 01227-59c22 3 43 15 63 28 38 24 75 58 100 102 55 97-53 167-109 208-25 19-64 40-75 78-7 27-12 54-22 80-25 69-78 151-148 140-30-5-57-24-85-36-29-13-58-21-88-29-28-7-51-18-69-46-8-14-7-30-8-47l-2-82z"/>
    <path d="M747 367c11-87 53-182 114-233 72-60 151-110 237-124 40-7 84-10 121 12 29 16 62 41 78 76 39 86-47 154-96 193-26 21-60 42-80 73-11 18-17 42-27 62-28 60-74 108-132 117-27 4-54-1-80-5-28-4-55-7-82-12-22-5-47-12-55-40-10-36-3-84 2-119z"/>
    <path d="M774 353c17-82 51-162 110-211 31-26 67-44 101-61 39-20 80-36 122-44 52-9 136-18 163 54s-41 135-81 172c-26 23-54 44-79 69-13 14-23 30-35 46-31 45-75 80-121 99-44 18-98 26-145 20-20-3-34-11-40-36-9-35-1-75 5-108z"/>
    <path d="M802 331c16-72 51-138 102-182 58-48 131-75 199-89 37-7 115-27 133 30 19 56-35 112-65 143a1760 1760 0 01-227 187c-21 12-43 23-66 31-17 5-39 14-56 10-45-11-28-96-20-130z"/>
    <path d="M835 309c36-136 149-203 258-227 25-5 96-25 110 17 14 40-30 88-50 111-63 70-141 122-215 174-24 16-65 51-94 35-31-18-16-82-9-110z"/>
    <path d="M872 283a273 273 0 01204-177c20-5 72-19 88 9 14 26-20 63-33 78-28 33-62 61-95 87-31 24-62 49-94 70-17 11-49 34-68 17-21-18-9-62-2-84z"/>
    <path d="M912 253c24-65 87-108 143-122 15-4 48-13 60 4 12 16-7 40-15 51-37 48-92 91-141 118-13 7-35 20-48 6s-4-42 1-57z"/>
    <path d="M955 226c13-33 48-57 77-65 20-5 45-1 27 28-18 28-50 53-78 65-21 8-38 0-26-28zM-127 451c-1-64-29-131-15-196 11-54 68-59 103-83 27-19 42-54 57-87C31 56 43 25 57-4c9-18 25-55 44-56s36 28 47 45l41 68c23 38 51 66 83 93 36 30 73 60 110 88 28 21 56 41 82 64 17 14 54 41 54 68 0 13-10 27-16 37l-37 48-73 83c-32 35-63 71-91 111-29 42-56 85-84 128-20 29-39 62-66 79-35 23-63-1-98-1-30 0-28-85-32-109S9 696 6 672c-4-30-5-61-6-91-1-37-1-72-34-86-18-8-38-10-57-15-13-3-36-8-36-29z"/>
    <path d="M-112 440c-4-54-22-123-5-179 16-47 63-53 94-78 26-21 38-55 51-88 11-26 21-53 33-79 8-19 22-51 40-55 16-3 34 25 43 39 14 21 25 44 37 66 21 40 42 75 73 104 30 29 64 50 98 73 26 17 53 35 78 56 19 15 46 34 54 61 7 21-28 57-38 69-21 26-43 50-65 74-27 29-55 55-79 88-43 60-78 134-133 178-34 27-71 34-107 30-15-2-19-27-20-42-3-24-4-49-6-73-2-23-7-45-11-67-4-23-5-47-8-70-2-14-4-30-12-42s-22-17-34-20c-22-7-81-7-83-45z"/>
    <path d="M-93 417c-6-49-13-111 9-156 17-38 55-46 82-70 22-20 31-52 42-82 9-25 18-49 29-72 8-18 19-42 36-48 14-6 30 18 38 30 13 20 24 42 35 64 18 37 34 75 59 105 25 28 54 45 84 64 23 15 45 30 67 47 16 13 37 29 45 51 8 19-11 42-21 55-16 23-33 43-50 63-19 23-39 43-57 66-38 47-68 100-115 136-30 24-71 45-106 42-26-3-24-73-27-95-4-36-12-74-24-107-11-29-36-38-60-44-14-4-29-6-44-13-16-7-20-15-22-36z"/>
    <path d="M-76 394c-3-42-2-91 18-127 18-32 50-40 73-65 18-20 25-52 34-77 12-32 28-90 57-102 28-11 56 60 66 81 16 33 29 69 48 100 16 26 38 41 61 57 30 20 75 43 91 82 12 29-27 73-40 93-14 21-24 46-38 66-22 32-59 58-89 78-29 19-66 40-99 39-22-1-26-42-31-62-6-28-15-53-34-73-19-19-42-29-66-37-12-4-26-7-37-15-12-9-12-22-14-38z"/>
    <path d="M-54 370c0-36 7-75 27-103 17-23 43-30 59-54 13-19 19-45 28-67 10-27 25-74 50-83 26-9 48 42 58 63 14 30 25 61 39 91 12 23 25 39 43 54 22 17 52 37 63 66 8 21-12 55-19 74-5 12-9 25-12 39-2 10-2 20-7 29-14 23-44 26-65 33-27 10-56 22-85 24-18 1-27-19-37-32-12-17-28-29-43-41-19-17-41-27-62-37-10-5-22-10-29-19-8-10-8-24-8-37z"/>
    <path d="M-31 349c3-31 14-60 32-81 14-17 33-26 44-46 11-18 18-39 27-59 9-21 23-56 44-61 23-6 40 29 50 48 12 25 21 51 32 77 9 19 19 36 32 51 13 16 31 32 37 54 6 19-5 43-7 62-2 21 2 44-10 62-23 37-83 30-117 31-33 1-60-22-87-44l-55-40c-19-13-25-28-22-54z"/>
    <path d="M-10 331c10-44 42-67 65-100 19-28 33-84 65-91 36-9 57 66 70 95 14 32 38 58 49 91 5 18 0 35-3 52-3 20-5 40-16 55-21 31-63 31-93 32-31 1-59-20-84-41-26-23-64-48-53-93z"/>
    <path d="M7 319c12-31 36-57 56-81 16-20 34-60 59-63 30-3 48 40 59 66 12 26 28 54 35 82 6 30-11 70-28 91a93 93 0 01-76 31c-27-1-53-20-73-40-23-22-45-49-32-86z"/>
    <path d="M23 313c11-26 30-48 48-67 14-16 34-41 54-42 21-1 40 21 48 43 9 22 18 50 19 74 3 52-54 110-96 106-40-5-95-62-73-114z"/>
    <path d="M38 311c15-34 52-83 87-84 39-1 49 53 44 92s-51 97-87 89c-36-7-62-57-44-97z"/>
    <path d="M53 305c13-28 41-64 70-65 34-1 33 44 26 73-8 29-44 79-74 71-29-8-34-52-22-79z"/>
    <path d="M67 302c9-21 30-46 50-47 25-1 20 35 14 53-8 20-33 56-55 50-21-5-16-40-9-56zM1235 1461c-55 40-117 74-176 108-85 50-172 98-262 136-48 19-111 48-163 33-19-6-36-23-53-35l-71-45c-47-29-95-58-142-90-22-15-44-34-67-47-14-7-30-4-45-3l-102 5c-41 2-82 4-124 3-19 0-64 4-75-16-5-10 8-29 14-38 11-16 24-31 36-45 30-34 60-66 86-103 14-19 31-43 22-69-8-27-24-50-33-76-10-30-15-62-20-94-4-24-12-45-21-67-9-24-18-49-24-75-4-16-11-47 3-58 21-15 60-3 83 2 33 6 65 14 97 21 24 5 47 10 71 11 39 1 77-3 115-6 72-5 142-13 213-13 63 0 207 89 241 104 68 31 137 61 201 102 17 11 43 26 53 49 5 14 3 22 16 31 18 13 41 18 61 23l97 25c65 16 130 35 195 53 20 5 43 6 62 16 12 6 11 14 2 23-17 16-40 25-59 34-29 14-57 26-86 38l-87 36c-19 7-41 14-58 27z"/>
    <path d="M1190 1452c-58 40-123 73-185 104-80 41-161 79-245 104-49 15-107 32-158 15-18-6-31-20-46-32l-54-39c-38-26-76-50-114-74-20-13-43-30-66-34-18-4-39 1-57 3l-99 8c-38 2-76 5-114 4-21 0-58 4-73-13-13-14 35-67 43-77 26-32 54-62 78-95 15-20 32-44 38-70 6-23-4-48-10-69l-22-78c-8-22-20-42-31-63-11-22-23-45-32-70-5-15-14-40-3-55 12-17 50-6 65-3 32 5 63 12 94 18 52 11 102 21 155 18 68-3 137-10 206-13 26-2 51-5 77-3 14 1 26 6 34 18 12 17 38 26 57 36l87 43c65 31 130 61 191 101 19 13 41 27 55 48 8 11 6 23 11 35 7 16 28 24 40 29 25 10 50 17 75 24 57 14 114 24 172 31 14 2 67 8 39 35-31 30-76 45-112 63-33 15-66 29-96 51z"/>
    <path d="M1109 1444c-54 36-115 63-174 88-71 31-144 59-219 75-47 9-99 17-146 1-32-11-56-41-84-62-28-20-58-40-88-56-18-10-38-20-59-18-50 3-101 10-151 14-34 2-67 5-101 4-20 0-48 1-66-12-19-14 86-137 96-151 25-34 55-80 50-129-4-47-24-82-47-119-13-21-54-77-39-104 9-16 38-10 51-9 27 2 54 6 81 10 39 6 79 15 118 17 27 2 55 0 82 0h117c33 1 67 0 99 4 21 2 36 8 51 23 12 13 32 21 48 29l81 39c56 27 114 54 168 88 25 15 66 37 72 74 2 14 4 20 14 27 16 11 34 16 51 20 40 10 82 9 122 19 16 4 37 13 19 33-22 23-54 36-80 50-13 8-26 14-38 23-10 7-18 16-28 22z"/>
    <path d="M1006 1433c-51 29-105 50-159 69-60 21-121 39-183 46-43 6-89 7-130-9-27-10-45-31-67-48-34-27-71-48-112-43a2230 2230 0 01-223 15c-17-1-40-2-56-12-20-13 57-113 67-127 24-36 41-74 51-119 9-36-8-65-26-92-11-17-46-59-35-81 6-13 26-12 37-13 20-1 41 1 61 1 31 1 63-5 93 0 66 10 132 19 199 26 37 3 74 7 111 14 13 3 26 6 39 12 8 3 12 10 19 15 32 26 74 39 110 55 48 22 97 43 143 69 25 14 60 29 77 57 5 8 2 15 6 23 3 9 15 12 22 14 16 6 86 15 54 49-15 17-35 27-52 40-6 5-12 9-17 16-9 10-18 16-29 23z"/>
    <path d="M896 1420a695 695 0 01-325 73c-37-2-75-9-107-32-18-15-33-30-55-35-16-4-33 0-50 2a2733 2733 0 01-157 8c-20-1-49 0-67-14-22-16 33-92 41-105 19-33 32-65 36-105 2-11 6-23 6-35-1-12-7-22-12-31-8-13-33-42-25-57 4-8 18-9 26-11l44-7c25-5 49-19 74-19 67 1 135 26 200 40 39 9 78 16 117 27 12 4 24 8 36 14 8 4 13 11 21 16 28 18 61 29 92 41l120 48c25 11 57 20 78 40 16 14 5 18-3 31-5 7-4 14-5 22-3 11-10 18-17 26-10 9-23 17-30 30-3 4-3 9-5 13-7 10-24 16-33 20z"/>
    <path d="M790 1403c-81 30-171 47-257 39-29-3-59-9-87-23-13-6-22-13-36-14-32-1-64 3-96 3-23 1-46 1-69-1-15-2-36-4-49-15-18-17 15-73 22-89 11-26 22-55 17-85l-4-27c0-8 1-15-1-23-3-9-16-24-12-33 3-6 12-6 18-8 10-3 19-7 28-12 10-6 18-14 28-18 16-7 34-8 51-8 68 0 136 16 202 33 34 9 69 19 102 32 10 4 22 8 30 16l16 14c54 30 116 41 173 63 15 6 98 34 55 61-27 17-54 24-78 46-7 7-12 13-15 23-2 7 2 4-4 11-7 8-25 12-34 15z"/>
    <path d="M706 1386c-95 24-195 25-292 4-24-6-49-4-74-6-23-1-66 2-83-21-13-16 1-50 6-69 6-23 11-47 1-69l-20-39c-3-6-9-15-6-21 4-10 23-14 33-19 31-14 63-18 96-18a817 817 0 01261 48c14 6 25 18 40 25 45 23 94 35 141 56 13 6 63 26 38 49-24 23-60 21-86 42-3 3-6 5-8 9v9c-8 14-35 17-47 20z"/>
    <path d="M644 1370c-48 8-98 10-147 11-27 0-57 2-83-6-17-6-32-10-49-13-18-4-47-6-58-25-8-14-3-43-2-61 0-18-3-32-14-46-7-8-38-39-35-48 4-8 26-10 35-12 30-7 60-9 91-9a706 706 0 01198 33c12 6 23 16 35 22 35 17 72 28 107 45 12 6 48 20 40 43-8 18-33 24-45 37-21 21-46 24-73 29z"/>
    <path d="M614 1359c-39 5-78 8-117 8-26 0-52 0-77-6-12-4-23-12-35-18s-29-12-34-26c-5-13-3-32-8-47-3-14-11-22-20-32-6-6-34-31-31-37 4-6 21-6 30-6a561 561 0 01173 10c23 6 41 19 63 29 28 12 57 22 85 36 14 7 34 16 41 34 3 7 6 24 3 31-4 8-18 12-24 14-16 5-33 8-49 10z"/>
  </g>
</svg>
